<svg width="900" height="230" viewBox="0 0 900 230" fill="none" xmlns="http://www.w3.org/2000/svg">
<rect width="900" height="230" fill="url(#paint0_linear_50_12)"/>
<path d="M419.466 115.456C417.882 115.456 416.522 115.176 415.386 114.616C414.25 114.056 413.322 113.328 412.602 112.432C411.898 111.536 411.378 110.56 411.042 109.504C410.706 108.448 410.538 107.432 410.538 106.456V105.928C410.538 104.84 410.706 103.768 411.042 102.712C411.394 101.656 411.93 100.696 412.65 99.832C413.37 98.968 414.282 98.28 415.386 97.768C416.506 97.24 417.826 96.976 419.346 96.976C420.93 96.976 422.306 97.264 423.474 97.84C424.658 98.4 425.602 99.2 426.306 100.24C427.01 101.264 427.434 102.464 427.578 103.84H424.146C424.018 103.04 423.73 102.368 423.282 101.824C422.85 101.264 422.298 100.848 421.626 100.576C420.954 100.288 420.194 100.144 419.346 100.144C418.482 100.144 417.714 100.296 417.042 100.6C416.37 100.888 415.81 101.304 415.362 101.848C414.914 102.392 414.57 103.032 414.33 103.768C414.106 104.504 413.994 105.32 413.994 106.216C413.994 107.08 414.106 107.88 414.33 108.616C414.57 109.352 414.922 110 415.386 110.56C415.85 111.104 416.418 111.528 417.09 111.832C417.778 112.136 418.57 112.288 419.466 112.288C420.778 112.288 421.882 111.968 422.778 111.328C423.69 110.672 424.242 109.76 424.434 108.592H427.866C427.706 109.84 427.282 110.984 426.594 112.024C425.906 113.064 424.962 113.896 423.762 114.52C422.562 115.144 421.13 115.456 419.466 115.456ZM438.374 115V111.136H437.822V106.84C437.822 106.088 437.638 105.528 437.27 105.16C436.902 104.792 436.334 104.608 435.566 104.608C435.166 104.608 434.686 104.616 434.126 104.632C433.566 104.648 432.998 104.672 432.422 104.704C431.862 104.72 431.358 104.744 430.91 104.776V101.944C431.278 101.912 431.694 101.88 432.158 101.848C432.622 101.816 433.094 101.8 433.574 101.8C434.07 101.784 434.534 101.776 434.966 101.776C436.31 101.776 437.422 101.952 438.302 102.304C439.198 102.656 439.87 103.208 440.318 103.96C440.782 104.712 441.014 105.696 441.014 106.912V115H438.374ZM434.174 115.336C433.23 115.336 432.398 115.168 431.678 114.832C430.974 114.496 430.422 114.016 430.022 113.392C429.638 112.768 429.446 112.016 429.446 111.136C429.446 110.176 429.678 109.392 430.142 108.784C430.622 108.176 431.286 107.72 432.134 107.416C432.998 107.112 434.006 106.96 435.158 106.96H438.182V108.952H435.11C434.342 108.952 433.75 109.144 433.334 109.528C432.934 109.896 432.734 110.376 432.734 110.968C432.734 111.56 432.934 112.04 433.334 112.408C433.75 112.776 434.342 112.96 435.11 112.96C435.574 112.96 435.998 112.88 436.382 112.72C436.782 112.544 437.11 112.256 437.366 111.856C437.638 111.44 437.79 110.88 437.822 110.176L438.638 111.112C438.558 112.024 438.334 112.792 437.966 113.416C437.614 114.04 437.118 114.52 436.478 114.856C435.854 115.176 435.086 115.336 434.174 115.336ZM444.587 115V101.968H447.227V107.488H447.155C447.155 105.616 447.555 104.2 448.355 103.24C449.155 102.28 450.331 101.8 451.883 101.8H452.363V104.704H451.451C450.331 104.704 449.459 105.008 448.835 105.616C448.227 106.208 447.923 107.072 447.923 108.208V115H444.587ZM460.765 115.456C459.613 115.456 458.597 115.272 457.717 114.904C456.837 114.536 456.093 114.04 455.485 113.416C454.877 112.776 454.413 112.056 454.093 111.256C453.789 110.456 453.637 109.624 453.637 108.76V108.256C453.637 107.36 453.797 106.512 454.117 105.712C454.453 104.896 454.925 104.176 455.533 103.552C456.157 102.912 456.909 102.416 457.789 102.064C458.669 101.696 459.661 101.512 460.765 101.512C461.869 101.512 462.861 101.696 463.741 102.064C464.621 102.416 465.365 102.912 465.973 103.552C466.597 104.176 467.069 104.896 467.389 105.712C467.709 106.512 467.869 107.36 467.869 108.256V108.76C467.869 109.624 467.709 110.456 467.389 111.256C467.085 112.056 466.629 112.776 466.021 113.416C465.413 114.04 464.669 114.536 463.789 114.904C462.909 115.272 461.901 115.456 460.765 115.456ZM460.765 112.6C461.581 112.6 462.269 112.424 462.829 112.072C463.389 111.704 463.813 111.216 464.101 110.608C464.389 109.984 464.533 109.28 464.533 108.496C464.533 107.696 464.381 106.992 464.077 106.384C463.789 105.76 463.357 105.272 462.781 104.92C462.221 104.552 461.549 104.368 460.765 104.368C459.981 104.368 459.301 104.552 458.725 104.92C458.165 105.272 457.733 105.76 457.429 106.384C457.125 106.992 456.973 107.696 456.973 108.496C456.973 109.28 457.117 109.984 457.405 110.608C457.709 111.216 458.141 111.704 458.701 112.072C459.261 112.424 459.949 112.6 460.765 112.6ZM475.231 115.408C473.727 115.408 472.559 114.912 471.727 113.92C470.911 112.928 470.503 111.456 470.503 109.504V101.944H473.839V109.792C473.839 110.592 474.063 111.232 474.511 111.712C474.959 112.176 475.567 112.408 476.335 112.408C477.103 112.408 477.727 112.16 478.207 111.664C478.703 111.168 478.951 110.496 478.951 109.648V101.944H482.287V115H479.647V109.456H479.911C479.911 110.768 479.743 111.864 479.407 112.744C479.071 113.624 478.567 114.288 477.895 114.736C477.223 115.184 476.383 115.408 475.375 115.408H475.231ZM490.847 115.408C489.055 115.408 487.647 115.032 486.623 114.28C485.615 113.512 485.087 112.456 485.039 111.112H488.039C488.087 111.56 488.335 111.968 488.783 112.336C489.231 112.704 489.935 112.888 490.895 112.888C491.695 112.888 492.327 112.744 492.791 112.456C493.271 112.168 493.511 111.776 493.511 111.28C493.511 110.848 493.327 110.504 492.959 110.248C492.607 109.992 491.999 109.824 491.135 109.744L489.983 109.624C488.527 109.464 487.407 109.048 486.623 108.376C485.839 107.704 485.447 106.808 485.447 105.688C485.447 104.792 485.671 104.04 486.119 103.432C486.567 102.824 487.183 102.368 487.967 102.064C488.767 101.744 489.679 101.584 490.703 101.584C492.303 101.584 493.599 101.936 494.591 102.64C495.583 103.344 496.103 104.376 496.151 105.736H493.151C493.119 105.288 492.895 104.904 492.479 104.584C492.063 104.264 491.463 104.104 490.679 104.104C489.975 104.104 489.431 104.24 489.047 104.512C488.663 104.784 488.471 105.136 488.471 105.568C488.471 105.984 488.623 106.304 488.927 106.528C489.247 106.752 489.759 106.904 490.463 106.984L491.615 107.104C493.151 107.264 494.351 107.688 495.215 108.376C496.095 109.064 496.535 109.992 496.535 111.16C496.535 112.024 496.295 112.776 495.815 113.416C495.351 114.04 494.695 114.528 493.847 114.88C492.999 115.232 491.999 115.408 490.847 115.408ZM505.123 115.456C504.003 115.456 503.019 115.264 502.171 114.88C501.339 114.496 500.643 113.984 500.083 113.344C499.539 112.688 499.123 111.96 498.835 111.16C498.563 110.36 498.427 109.544 498.427 108.712V108.256C498.427 107.392 498.563 106.56 498.835 105.76C499.123 104.944 499.539 104.224 500.083 103.6C500.643 102.96 501.331 102.456 502.147 102.088C502.963 101.704 503.907 101.512 504.979 101.512C506.387 101.512 507.563 101.824 508.507 102.448C509.467 103.056 510.187 103.864 510.667 104.872C511.147 105.864 511.387 106.936 511.387 108.088V109.288H499.843V107.248H509.299L508.267 108.256C508.267 107.424 508.147 106.712 507.907 106.12C507.667 105.528 507.299 105.072 506.803 104.752C506.323 104.432 505.715 104.272 504.979 104.272C504.243 104.272 503.619 104.44 503.107 104.776C502.595 105.112 502.203 105.6 501.931 106.24C501.675 106.864 501.547 107.616 501.547 108.496C501.547 109.312 501.675 110.04 501.931 110.68C502.187 111.304 502.579 111.8 503.107 112.168C503.635 112.52 504.307 112.696 505.123 112.696C505.939 112.696 506.603 112.536 507.115 112.216C507.627 111.88 507.955 111.472 508.099 110.992H511.171C510.979 111.888 510.611 112.672 510.067 113.344C509.523 114.016 508.827 114.536 507.979 114.904C507.147 115.272 506.195 115.456 505.123 115.456ZM514.341 115V97.48H517.677V115H514.341ZM512.709 99.976V97.48H517.677V99.976H512.709Z" fill="white"/>
<rect x="367.221" y="85" width="13.3944" height="40.8212" rx="2" fill="#67B6FF"/>
<rect x="383.697" y="87.8578" width="13.8534" height="35.5695" rx="2" fill="#00DCB3"/>
<rect x="350" y="87.8578" width="13.1045" height="35.5695" rx="2" fill="#00DCB3"/>
<defs>
<linearGradient id="paint0_linear_50_12" x1="450" y1="230" x2="450" y2="0" gradientUnits="userSpaceOnUse">
<stop/>
<stop offset="1" stop-color="#212121"/>
</linearGradient>
</defs>
</svg>
